<svg width="23" height="226" viewBox="0 0 23 226" fill="none" xmlns="http://www.w3.org/2000/svg">
<path d="M22.816 218.143C22.816 219.615 22.56 220.938 22.048 222.111C21.5147 223.263 20.7894 224.17 19.872 224.831C18.9334 225.493 17.856 225.834 16.64 225.855V222.751C17.6854 222.645 18.5707 222.218 19.296 221.471C20 220.703 20.352 219.594 20.352 218.143C20.352 216.757 20.0107 215.669 19.328 214.879C18.624 214.069 17.728 213.663 16.64 213.663C15.7867 213.663 15.0934 213.898 14.56 214.367C14.0267 214.837 13.6214 215.423 13.344 216.127C13.0667 216.831 12.768 217.781 12.448 218.975C12.064 220.447 11.68 221.631 11.296 222.527C10.912 223.402 10.3147 224.159 9.50404 224.799C8.67204 225.418 7.56271 225.727 6.17604 225.727C4.96004 225.727 3.88271 225.418 2.94404 224.799C2.00537 224.181 1.28004 223.317 0.76804 222.207C0.25604 221.077 4.00543e-05 219.786 4.00543e-05 218.335C4.00543e-05 216.245 0.522707 214.538 1.56804 213.215C2.61337 211.871 4.00004 211.114 5.72804 210.943V214.143C4.87471 214.25 4.12804 214.698 3.48804 215.487C2.82671 216.277 2.49604 217.322 2.49604 218.623C2.49604 219.839 2.81604 220.831 3.45604 221.599C4.07471 222.367 4.94937 222.751 6.08004 222.751C6.89071 222.751 7.55204 222.527 8.06404 222.079C8.57604 221.61 8.97071 221.045 9.24804 220.383C9.50404 219.701 9.80271 218.751 10.144 217.535C10.5494 216.063 10.9547 214.879 11.36 213.983C11.744 213.087 12.352 212.319 13.184 211.679C13.9947 211.039 15.104 210.719 16.512 210.719C17.6 210.719 18.624 211.007 19.584 211.583C20.544 212.159 21.3227 213.013 21.92 214.143C22.5174 215.274 22.816 216.607 22.816 218.143ZM0.44804 183.81H22.592L22.592 186.722H6.08004L22.592 194.082V196.13L6.04804 203.522H22.592V206.434H0.44804V203.298L18.752 195.106L0.44804 186.914V183.81ZM17.632 165.688V175.416L22.592 177.208V180.28L0.41604 172.216V168.856L22.592 160.824V163.896L17.632 165.688ZM15.264 166.52L4.00004 170.552L15.264 174.584V166.52ZM22.592 145.565L13.472 150.877V154.397H22.592V157.309H0.28804L0.28804 150.109C0.28804 148.424 0.57604 147.005 1.15204 145.853C1.72804 144.68 2.50671 143.805 3.48804 143.229C4.46937 142.653 5.58937 142.365 6.84804 142.365C8.38404 142.365 9.73871 142.813 10.912 143.709C12.0854 144.584 12.864 145.906 13.248 147.677L22.592 142.077V145.565ZM11.136 154.397V150.109C11.136 148.53 10.752 147.346 9.98404 146.557C9.19471 145.768 8.14937 145.373 6.84804 145.373C5.52537 145.373 4.50137 145.768 3.77604 146.557C3.05071 147.325 2.68804 148.509 2.68804 150.109L2.68804 154.397H11.136ZM0.28804 124.112H2.65604V130.192H22.592V133.104H2.65604V139.216H0.28804L0.28804 124.112ZM0.28804 83.9645L22.592 90.4285V93.6925L4.64004 98.8765L22.592 104.253L22.624 107.485L0.28804 113.725V110.621L19.2 105.757L0.28804 100.381V97.1165L19.136 91.9965L0.28804 87.1005V83.9645ZM17.632 67.5938V77.3218L22.592 79.1138V82.1858L0.41604 74.1218V70.7618L22.592 62.7298V65.8018L17.632 67.5938ZM15.264 68.4258L4.00004 72.4578L15.264 76.4898V68.4258ZM0.28804 45.4873H2.65604L2.65604 51.5673H22.592V54.4793H2.65604V60.5913H0.28804L0.28804 45.4873ZM11.424 42.9908C9.24804 42.9908 7.29604 42.5001 5.56804 41.5188C3.81871 40.5374 2.45337 39.2041 1.47204 37.5188C0.490707 35.8121 4.00543e-05 33.9241 4.00543e-05 31.8548C4.00543e-05 29.4228 0.586707 27.3001 1.76004 25.4868C2.93337 23.6734 4.59737 22.3508 6.75204 21.5188V25.0068C5.40804 25.6254 4.37337 26.5214 3.64804 27.6948C2.92271 28.8468 2.56004 30.2334 2.56004 31.8548C2.56004 33.4121 2.92271 34.8094 3.64804 36.0468C4.37337 37.2841 5.40804 38.2548 6.75204 38.9588C8.07471 39.6628 9.63204 40.0148 11.424 40.0148C13.1947 40.0148 14.752 39.6628 16.096 38.9588C17.4187 38.2548 18.4427 37.2841 19.168 36.0468C19.8934 34.8094 20.256 33.4121 20.256 31.8548C20.256 30.2334 19.904 28.8468 19.2 27.6948C18.4747 26.5214 17.44 25.6254 16.096 25.0068V21.5188C18.2294 22.3508 19.8827 23.6734 21.056 25.4868C22.208 27.3001 22.784 29.4228 22.784 31.8548C22.784 33.9241 22.304 35.8121 21.344 37.5188C20.3627 39.2041 19.008 40.5374 17.28 41.5188C15.552 42.5001 13.6 42.9908 11.424 42.9908ZM0.28804 9.53674e-06H22.592V2.91201H12.48V14.272H22.592L22.592 17.184H0.28804V14.272H10.08V2.91201H0.28804V9.53674e-06Z" fill="white"/>
</svg>
