<svg width="125" height="479" viewBox="0 0 125 479" fill="none" xmlns="http://www.w3.org/2000/svg">
<path d="M0.878906 478.477V453.164L96.1523 425.215L123.926 434.531V442.793L0.878906 478.477ZM33.5742 433.301L0.878906 423.633L0.878906 398.32L96.1523 370.547L123.926 379.688V387.949L43.7695 411.152C47.5195 412.324 53.2031 414.023 60.8203 416.25C66.2109 417.891 70.2539 419.121 72.9492 419.941V421.699L33.5742 433.301ZM33.5742 377.754L0.878906 368.086V342.773L72.9492 364.395V366.152L33.5742 377.754ZM123.926 335.391L21.6211 312.715V310.078L70.8398 299.531L123.926 311.133V335.391ZM108.984 297.949L84.7266 292.676V286.348L0.878906 304.98L0.878906 280.547L123.926 251.543V276.152L108.984 279.668V297.949ZM25.1367 245.566H0.878906V169.453H25.1367V195.117H123.926V219.902H25.1367V245.566ZM92.1094 160.137H32.8711C26.0742 160.137 19.4531 157.617 13.0078 152.578C4.45313 145.898 0.117188 136.875 0 125.508H24.7852C24.9023 130.43 27.1875 133.594 31.6406 135C32.1094 135.234 32.5195 135.352 32.8711 135.352H92.1094C93.9844 135.352 95.8008 134.355 97.5586 132.363C99.1992 130.488 100.02 128.203 100.02 125.508H124.805C124.805 138.633 119.297 148.535 108.281 155.215C102.656 158.496 97.2656 160.137 92.1094 160.137ZM124.805 116.016H100.02C100.02 116.016 99.4922 114.668 98.4375 111.973C97.2656 110.332 96.0352 109.219 94.7461 108.633C93.2227 108.047 91.0547 107.754 88.2422 107.754H86.1328L91.9336 83.4961C102.129 83.4961 110.566 87.5977 117.246 95.8008C122.285 102.012 124.805 108.75 124.805 116.016ZM24.7852 116.016H0C0 107.461 3.75 99.7266 11.25 92.8125C18.0469 86.6016 25.3711 83.4961 33.2227 83.4961L39.5508 107.754H36.9141C33.9844 107.754 31.8164 108.047 30.4102 108.633C29.2383 109.102 28.1836 109.98 27.2461 111.27C26.3086 112.441 25.6641 113.496 25.3125 114.434L24.7852 116.016ZM123.926 72.9492H0.878906V48.1641H49.9219V41.3086H74.1797V48.1641H123.926V72.9492ZM74.1797 31.6406H49.9219V24.7852H0.878906V0H123.926V24.7852H74.1797V31.6406Z" fill="#4E4E4E"/>
</svg>
