<svg width="30" height="30" viewBox="0 0 30 30" fill="none" xmlns="http://www.w3.org/2000/svg">
<path d="M10.4377 27.9377C11.1281 27.9377 11.6877 27.3781 11.6877 26.6877C11.6877 25.9974 11.1281 25.4377 10.4377 25.4377C9.74736 25.4377 9.18771 25.9974 9.18771 26.6877C9.18771 27.3781 9.74736 27.9377 10.4377 27.9377Z" fill="white"/>
<path d="M24.1877 27.9377C24.8781 27.9377 25.4377 27.3781 25.4377 26.6877C25.4377 25.9974 24.8781 25.4377 24.1877 25.4377C23.4974 25.4377 22.9377 25.9974 22.9377 26.6877C22.9377 27.3781 23.4974 27.9377 24.1877 27.9377Z" fill="white"/>
<path d="M3 4.49997H6L9 16C9.12197 16.5685 9.5437 17.6395 10 18C10.4563 18.3604 11.1063 18.5129 11.6877 18.5H23.5C24.069 18.4991 24.5568 18.3568 25 18C25.4432 17.6432 25.8777 16.5556 26 16L28.05 8.24997H6.8375" fill="white"/>
<path d="M3 4.49997H6L9 16C9.12197 16.5685 9.5437 17.6395 10 18C10.4563 18.3604 11.1063 18.5129 11.6877 18.5H23.5C24.069 18.4991 24.5568 18.3568 25 18C25.4432 17.6432 25.8777 16.5556 26 16L28.05 8.24997H6.8375M11.6877 26.6877C11.6877 27.3781 11.1281 27.9377 10.4377 27.9377C9.74736 27.9377 9.18771 27.3781 9.18771 26.6877C9.18771 25.9974 9.74736 25.4377 10.4377 25.4377C11.1281 25.4377 11.6877 25.9974 11.6877 26.6877ZM25.4377 26.6877C25.4377 27.3781 24.8781 27.9377 24.1877 27.9377C23.4974 27.9377 22.9377 27.3781 22.9377 26.6877C22.9377 25.9974 23.4974 25.4377 24.1877 25.4377C24.8781 25.4377 25.4377 25.9974 25.4377 26.6877Z" stroke="white" stroke-width="2" stroke-linecap="round" stroke-linejoin="round"/>
<path d="M26 22H12.6985M10.4052 22H11.3225H12.6985M10.4052 22H12.6985M10.4052 22C10.3198 21.8404 10.2249 21.6163 10.1484 21.3536C9.95094 20.6757 9.87628 19.7414 10.4052 19" stroke="white" stroke-width="2" stroke-linecap="round"/>
</svg>
