<svg width="27" height="27" viewBox="0 0 27 27" fill="none" xmlns="http://www.w3.org/2000/svg">
<g clip-path="url(#clip0_16_391)">
<path d="M13.5 0C20.9558 0 27 6.04416 27 13.5C27 20.4021 21.82 26.0937 15.1355 26.9011V17.6254L18.7876 17.6254L19.5451 13.5H15.1355V12.041C15.1355 10.9509 15.3493 10.1963 15.8398 9.71419C16.3304 9.23205 17.0976 9.02242 18.2044 9.02242C18.4845 9.02242 18.7424 9.02521 18.9712 9.03078C19.3039 9.03888 19.5752 9.05288 19.764 9.07275V5.33304C19.6886 5.31207 19.5995 5.29111 19.4997 5.27047C19.2736 5.22372 18.9925 5.17865 18.6903 5.13907C18.0589 5.05635 17.3354 4.99759 16.8293 4.99759C14.7852 4.99759 13.2404 5.4349 12.162 6.34071C10.8606 7.4339 10.2387 9.20949 10.2387 11.7224V13.5H7.45491V17.6254H10.2387V26.6024C4.35861 25.1436 0 19.8312 0 13.5C0 6.04416 6.04416 0 13.5 0Z" fill="#FAFAFA"/>
</g>
<defs>
<clipPath id="clip0_16_391">
<rect width="27" height="27" fill="white"/>
</clipPath>
</defs>
</svg>
