<svg width="27" height="27" viewBox="0 0 27 27" fill="none" xmlns="http://www.w3.org/2000/svg">
<path d="M20.6946 7.89989C19.8005 7.90164 19.0736 7.17773 19.0719 6.28367C19.0701 5.38961 19.794 4.66264 20.6885 4.66089C21.583 4.65915 22.3099 5.38348 22.3117 6.27754C22.313 7.1716 21.5891 7.89814 20.6946 7.89989Z" fill="white"/>
<path fill-rule="evenodd" clip-rule="evenodd" d="M13.5129 20.4311C9.68522 20.4386 6.57574 17.3417 6.56832 13.5131C6.56087 9.68538 9.65853 6.57541 13.4862 6.56798C17.3148 6.56054 20.4247 9.65914 20.4322 13.4864C20.4396 17.3151 17.341 20.4237 13.5129 20.4311ZM13.491 9.0004C11.0066 9.00478 8.99543 11.0234 8.99981 13.5083C9.00462 15.9937 11.0237 18.0044 13.5081 17.9996C15.9934 17.9948 18.0046 15.9766 17.9998 13.4912C17.995 11.0059 15.9759 8.99559 13.491 9.0004Z" fill="white"/>
<path fill-rule="evenodd" clip-rule="evenodd" d="M4.6341 0.727289C5.49142 0.39136 6.4725 0.161282 7.90892 0.0934855C9.34887 0.0243817 9.80856 0.0086299 13.474 0.0016342C17.1403 -0.0053615 17.6 0.0086272 19.0399 0.0724876C20.4768 0.134598 21.4583 0.36118 22.3174 0.693612C23.2062 1.0361 23.9602 1.49713 24.7117 2.24553C25.4632 2.9948 25.9259 3.74627 26.2728 4.63377C26.6083 5.49196 26.8383 6.47219 26.9066 7.90951C26.9748 9.34901 26.9914 9.80828 26.9984 13.4742C27.0054 17.1397 26.9905 17.5998 26.9276 19.0406C26.865 20.4766 26.6389 21.4586 26.3065 22.3172C25.9631 23.206 25.5029 23.9601 24.7545 24.7116C24.0061 25.4635 23.2538 25.9258 22.3663 26.2731C21.5082 26.6082 20.528 26.8383 19.0915 26.9069C17.6516 26.9752 17.1919 26.9914 13.5252 26.9984C9.86017 27.0054 9.40048 26.9914 7.96056 26.9279C6.52368 26.865 5.54172 26.6388 4.68309 26.3068C3.7943 25.963 3.04022 25.5033 2.28876 24.7545C1.53687 24.0056 1.07368 23.2537 0.727266 22.3662C0.39134 21.5085 0.16212 20.5278 0.0934568 19.0918C0.0247904 17.6514 0.00861195 17.1913 0.00161895 13.5258C-0.00540105 9.8599 0.00904125 9.40063 0.0720188 7.96068C0.13545 6.52337 0.360716 5.54182 0.693146 4.68232C1.03649 3.79394 1.49664 3.04029 2.24591 2.28839C2.9943 1.53694 3.74662 1.07327 4.6341 0.727289ZM5.55923 24.0389C6.03556 24.2221 6.75026 24.4408 8.06641 24.4981C9.49058 24.5598 9.91703 24.5734 13.5208 24.5664C17.1258 24.5598 17.5523 24.5445 18.976 24.4776C20.2909 24.415 21.0056 24.1937 21.4806 24.0082C22.1109 23.762 22.5597 23.4676 23.0312 22.9956C23.5027 22.5219 23.7945 22.0718 24.0385 21.4415C24.2222 20.9648 24.4405 20.2496 24.4978 18.9334C24.5603 17.5101 24.5735 17.0832 24.5665 13.4786C24.5599 9.87477 24.5446 9.44786 24.4768 8.02411C24.4147 6.70882 24.1938 5.99409 24.0079 5.51951C23.7617 4.88834 23.4681 4.44044 22.9949 3.96847C22.5216 3.49651 22.0715 3.20563 21.4404 2.96156C20.9649 2.77741 20.2493 2.55958 18.9341 2.50229C17.5099 2.43974 17.083 2.42704 13.4784 2.43405C9.87461 2.44105 9.44815 2.45547 8.02441 2.52285C6.70871 2.58538 5.99486 2.80628 5.51897 2.99218C4.88911 3.23843 4.44034 3.53106 3.96839 4.00478C3.4973 4.47848 3.20555 4.9277 2.96149 5.55931C2.77867 6.03522 2.55864 6.75081 2.50223 8.0661C2.4401 9.49029 2.42699 9.9172 2.43399 13.521C2.44056 17.1257 2.45586 17.5526 2.52278 18.9754C2.58446 20.2916 2.80708 21.0054 2.99211 21.4818C3.23837 22.1112 3.53187 22.56 4.0047 23.032C4.47841 23.5022 4.92849 23.7948 5.55923 24.0389Z" fill="white"/>
</svg>
