<svg width="111" height="42" viewBox="0 0 111 42" fill="none" xmlns="http://www.w3.org/2000/svg">
<path d="M0 25.4004L5.58105 23.4229C5.58105 24.1553 5.78613 24.7998 6.19629 25.3564C6.60645 25.9131 7.0166 26.2793 7.42676 26.4551L8.04199 26.7627V32.4756C5.55176 32.4756 3.42773 31.3916 1.66992 29.2236C0.585937 27.8467 0.0292969 26.5723 0 25.4004ZM0.351562 10.0195C0.351562 6.79688 1.72852 4.37988 4.48242 2.76855C5.74219 2.00684 6.92871 1.61133 8.04199 1.58203V7.38281C7.30957 7.58789 6.76758 8.11523 6.41602 8.96484C6.29883 9.22852 6.24023 9.50684 6.24023 9.7998C6.24023 11.001 7.13379 12.0264 8.9209 12.876C9.30176 13.0518 9.91699 13.3154 10.7666 13.667C12.1729 14.2236 13.1689 14.6777 13.7549 15.0293C16.1279 16.4355 17.71 17.8711 18.501 19.3359C19.0869 20.4785 19.3799 21.7529 19.3799 23.1592C19.3799 25.8252 18.3691 28.1104 16.3477 30.0146C14.6191 31.6553 12.6562 32.4756 10.459 32.4756V26.7627C11.6016 26.6162 12.4072 26.0156 12.876 24.9609C13.0811 24.4922 13.1836 23.9795 13.1836 23.4229C13.1836 21.9287 12.0703 20.6982 9.84375 19.7314C9.43359 19.5557 8.78906 19.3066 7.91016 18.9844C6.88477 18.6328 6.16699 18.3545 5.75684 18.1494C3.2373 16.9482 1.62598 15.3955 0.922852 13.4912C0.541992 12.4658 0.351562 11.3086 0.351562 10.0195ZM10.459 7.38281V1.58203C12.9199 1.58203 14.9854 2.62207 16.6553 4.70215C17.6221 5.93262 18.1201 7.0459 18.1494 8.04199L12.4365 9.93164C12.4365 8.70117 11.8359 7.86621 10.6348 7.42676C10.5176 7.39746 10.459 7.38281 10.459 7.38281ZM21.5771 11.9092V0H27.1582V11.9092H21.5771ZM28.7842 7.29492H35.332L41.748 26.2793L39.7705 32.3438H36.4307L28.7842 7.29492ZM39.2432 13.3154L41.0889 7.29492H47.6367L54.0527 26.2793L52.0752 32.3438H48.7354L44.2969 17.8857L42.9346 22.2803H42.3633L39.2432 13.3154ZM51.5479 13.3154L53.3936 7.29492H59.9414L55.2393 22.2803H54.668L51.5479 13.3154ZM62.4463 3.73535C62.4463 2.53418 62.9883 1.62598 64.0723 1.01074C64.5703 0.717773 65.0977 0.571289 65.6543 0.571289C66.8848 0.571289 67.8076 1.11328 68.4229 2.19727C68.6865 2.69531 68.8184 3.20801 68.8184 3.73535C68.8184 4.96582 68.2764 5.88867 67.1924 6.50391C66.6943 6.76758 66.1816 6.89941 65.6543 6.89941C64.3945 6.89941 63.457 6.34277 62.8418 5.22949C62.5781 4.76074 62.4463 4.2627 62.4463 3.73535ZM62.7539 32.3438V8.61328H68.6426V32.3438H62.7539ZM71.8945 25.752L77.3438 24.7412C77.3438 25.708 77.8418 26.3965 78.8379 26.8066C79.1895 26.9238 79.5117 26.9971 79.8047 27.0264V32.5635C76.4062 32.5635 74.0479 31.3623 72.7295 28.96C72.1729 27.9639 71.8945 26.8945 71.8945 25.752ZM72.1582 14.1504C72.1582 11.4258 73.4326 9.4043 75.9814 8.08594C77.2412 7.41211 78.4863 7.0752 79.7168 7.0752V12.5244C78.2812 12.5537 77.5635 13.0957 77.5635 14.1504C77.5635 15.2637 78.9111 16.2451 81.6064 17.0947C82.6025 17.417 83.7744 17.7246 85.1221 18.0176C87.1436 18.3984 88.5791 19.5264 89.4287 21.4014C89.8682 22.3682 90.0879 23.4375 90.0879 24.6094C90.0879 27.6562 88.8867 29.8975 86.4844 31.333C85.1074 32.1533 83.54 32.5635 81.7822 32.5635V27.0264C82.8076 27.0264 83.5693 26.6895 84.0674 26.0156C84.3018 25.6934 84.4189 25.3418 84.4189 24.9609C84.4189 24.0527 83.3057 23.2617 81.0791 22.5879C80.7275 22.5 80.1855 22.3535 79.4531 22.1484C77.9004 21.7383 76.8311 21.4014 76.2451 21.1377C74.1064 20.0537 72.8174 18.457 72.3779 16.3477C72.2314 15.6445 72.1582 14.9121 72.1582 14.1504ZM81.6943 12.5244L81.7383 7.0752C84.375 7.0752 86.499 8.04199 88.1104 9.97559C89.1357 11.2354 89.6484 12.5684 89.6484 13.9746L84.2432 14.8975C84.2432 13.5791 83.54 12.8027 82.1338 12.5684C81.958 12.5391 81.8115 12.5244 81.6943 12.5244ZM101.074 32.3438V26.6309H102.568C103.535 26.5723 104.121 26.1768 104.326 25.4443V14.1943C104.326 13.8135 104.092 13.4912 103.623 13.2275C103.301 13.0811 102.949 13.0078 102.568 13.0078H101.074V7.29492H102.568C105.322 7.29492 107.461 8.4668 108.984 10.8105C109.746 12.0117 110.127 13.1104 110.127 14.1064V25.5322C110.127 26.8799 109.541 28.2568 108.369 29.6631C106.816 31.4209 104.883 32.3145 102.568 32.3438H101.074ZM92.6807 41.0889V7.29492H98.877V41.0889H92.6807Z" fill="white"/>
</svg>
