<svg width="26" height="26" viewBox="0 0 26 26" fill="none" xmlns="http://www.w3.org/2000/svg">
<path d="M10.5 0C16.299 0 21 4.70101 21 10.5C21 12.9335 20.1697 15.1716 18.7803 16.9521L25.707 23.8779C26.0976 24.2685 26.0976 24.9024 25.707 25.293C25.3166 25.6833 24.6835 25.6831 24.293 25.293L17.4053 18.4053C15.559 20.0193 13.1449 21 10.5 21C4.70101 21 0 16.299 0 10.5C0 4.70101 4.70101 0 10.5 0ZM10.5 2C5.80558 2 2 5.80558 2 10.5C2 15.1944 5.80558 19 10.5 19C12.9021 19 15.0694 18.0015 16.6152 16.3994C16.6431 16.3625 16.6734 16.3266 16.707 16.293C16.7302 16.2698 16.7545 16.248 16.7793 16.2275C18.1583 14.7166 19 12.7068 19 10.5C19 5.80558 15.1944 2 10.5 2Z" fill="white"/>
</svg>
